%FSLAX34Y34*%
%MOMM*%
%LNSILK_TOP*%
G71*
G01*
%ADD10C,0.133*%
%LPD*%
G54D10*
X97384Y933830D02*
X97384Y944497D01*
X101384Y944497D01*
X102984Y943830D01*
X103784Y942497D01*
X103784Y935830D01*
X102984Y934497D01*
X101384Y933830D01*
X97384Y933830D01*
G54D10*
X106716Y933830D02*
X110716Y944497D01*
X114716Y933830D01*
G54D10*
X108316Y937830D02*
X113116Y937830D01*
G54D10*
X120850Y933830D02*
X120850Y944497D01*
G54D10*
X117650Y944497D02*
X124050Y944497D01*
G54D10*
X103784Y923130D02*
X102984Y921797D01*
X101384Y921130D01*
X99784Y921130D01*
X98184Y921797D01*
X97384Y923130D01*
X97384Y929797D01*
X98184Y931130D01*
X99784Y931797D01*
X101384Y931797D01*
X102984Y931130D01*
X103784Y929797D01*
G54D10*
X106716Y931797D02*
X106716Y921130D01*
X112316Y921130D01*
G54D10*
X115250Y921130D02*
X115250Y931797D01*
G54D10*
X115250Y924464D02*
X121650Y931797D01*
G54D10*
X117650Y926464D02*
X121650Y921130D01*
G54D10*
X97408Y764539D02*
X100608Y764539D01*
X100608Y761206D01*
X99808Y759872D01*
X98208Y759206D01*
X96608Y759206D01*
X95008Y759872D01*
X94208Y761206D01*
X94208Y767872D01*
X95008Y769206D01*
X96608Y769872D01*
X98208Y769872D01*
X99808Y769206D01*
X100608Y767872D01*
G54D10*
X103542Y759206D02*
X103542Y769872D01*
X109942Y759206D01*
X109942Y769872D01*
G54D10*
X112874Y759206D02*
X112874Y769872D01*
X116874Y769872D01*
X118474Y769206D01*
X119274Y767872D01*
X119274Y761206D01*
X118474Y759872D01*
X116874Y759206D01*
X112874Y759206D01*
G54D10*
X71984Y811497D02*
X78384Y811497D01*
G54D10*
X75184Y814164D02*
X75184Y808830D01*
G54D10*
X87716Y817497D02*
X81316Y817497D01*
X81316Y812830D01*
X82116Y812830D01*
X83716Y813497D01*
X85316Y813497D01*
X86916Y812830D01*
X87716Y811497D01*
X87716Y808830D01*
X86916Y807497D01*
X85316Y806830D01*
X83716Y806830D01*
X82116Y807497D01*
X81316Y808830D01*
G54D10*
X90650Y817497D02*
X94650Y806830D01*
X98650Y817497D01*
M02*
