%FSLAX34Y34*%
%MOMM*%
%LNSMDMASK_TOP*%
G71*
G01*
%ADD10R,0.400X0.875*%
%ADD11R,0.700X1.175*%
%ADD12R,5.000X13.800*%
%LPD*%
X148501Y931820D02*
G54D10*
D03*
X140500Y931820D02*
G54D10*
D03*
X132499Y931820D02*
G54D10*
D03*
X132499Y917680D02*
G54D10*
D03*
X140500Y917680D02*
G54D10*
D03*
X148501Y917680D02*
G54D10*
D03*
X198501Y931820D02*
G54D10*
D03*
X190500Y931820D02*
G54D10*
D03*
X182499Y931820D02*
G54D10*
D03*
X182499Y917680D02*
G54D10*
D03*
X190500Y917680D02*
G54D10*
D03*
X198501Y917680D02*
G54D10*
D03*
X248501Y931820D02*
G54D10*
D03*
X240500Y931820D02*
G54D10*
D03*
X232499Y931820D02*
G54D10*
D03*
X232499Y917680D02*
G54D10*
D03*
X240500Y917680D02*
G54D10*
D03*
X248501Y917680D02*
G54D10*
D03*
X298501Y931820D02*
G54D10*
D03*
X290500Y931820D02*
G54D10*
D03*
X282499Y931820D02*
G54D10*
D03*
X282499Y917680D02*
G54D10*
D03*
X290500Y917680D02*
G54D10*
D03*
X298501Y917680D02*
G54D10*
D03*
X348501Y931820D02*
G54D10*
D03*
X340500Y931820D02*
G54D10*
D03*
X332499Y931820D02*
G54D10*
D03*
X332499Y917680D02*
G54D10*
D03*
X340500Y917680D02*
G54D10*
D03*
X348501Y917680D02*
G54D10*
D03*
X332499Y867680D02*
G54D10*
D03*
X340500Y867680D02*
G54D10*
D03*
X348501Y867680D02*
G54D10*
D03*
X348501Y881820D02*
G54D10*
D03*
X340500Y881820D02*
G54D10*
D03*
X332499Y881820D02*
G54D10*
D03*
X282499Y867680D02*
G54D10*
D03*
X290500Y867680D02*
G54D10*
D03*
X298501Y867680D02*
G54D10*
D03*
X298501Y881820D02*
G54D10*
D03*
X290500Y881820D02*
G54D10*
D03*
X282499Y881820D02*
G54D10*
D03*
X232499Y867680D02*
G54D10*
D03*
X240500Y867680D02*
G54D10*
D03*
X248501Y867680D02*
G54D10*
D03*
X248501Y881820D02*
G54D10*
D03*
X240500Y881820D02*
G54D10*
D03*
X232499Y881820D02*
G54D10*
D03*
X182499Y867680D02*
G54D10*
D03*
X190500Y867680D02*
G54D10*
D03*
X198501Y867680D02*
G54D10*
D03*
X198501Y881820D02*
G54D10*
D03*
X190500Y881820D02*
G54D10*
D03*
X182499Y881820D02*
G54D10*
D03*
X132499Y867680D02*
G54D10*
D03*
X140500Y867680D02*
G54D10*
D03*
X148501Y867680D02*
G54D10*
D03*
X148501Y881820D02*
G54D10*
D03*
X140500Y881820D02*
G54D10*
D03*
X132499Y881820D02*
G54D10*
D03*
X148501Y831820D02*
G54D10*
D03*
X140500Y831820D02*
G54D10*
D03*
X132499Y831820D02*
G54D10*
D03*
X132499Y817680D02*
G54D10*
D03*
X140500Y817680D02*
G54D10*
D03*
X148501Y817680D02*
G54D10*
D03*
X198501Y831820D02*
G54D10*
D03*
X190500Y831820D02*
G54D10*
D03*
X182499Y831820D02*
G54D10*
D03*
X182499Y817680D02*
G54D10*
D03*
X190500Y817680D02*
G54D10*
D03*
X198501Y817680D02*
G54D10*
D03*
X248501Y831820D02*
G54D10*
D03*
X240500Y831820D02*
G54D10*
D03*
X232499Y831820D02*
G54D10*
D03*
X232499Y817680D02*
G54D10*
D03*
X240500Y817680D02*
G54D10*
D03*
X248501Y817680D02*
G54D10*
D03*
X298501Y831820D02*
G54D10*
D03*
X290500Y831820D02*
G54D10*
D03*
X282499Y831820D02*
G54D10*
D03*
X282499Y817680D02*
G54D10*
D03*
X290500Y817680D02*
G54D10*
D03*
X298501Y817680D02*
G54D10*
D03*
X348501Y831820D02*
G54D10*
D03*
X340500Y831820D02*
G54D10*
D03*
X332499Y831820D02*
G54D10*
D03*
X332499Y817680D02*
G54D10*
D03*
X340500Y817680D02*
G54D10*
D03*
X348501Y817680D02*
G54D10*
D03*
X332499Y767680D02*
G54D10*
D03*
X340500Y767680D02*
G54D10*
D03*
X348501Y767680D02*
G54D10*
D03*
X348501Y781820D02*
G54D10*
D03*
X340500Y781820D02*
G54D10*
D03*
X332499Y781820D02*
G54D10*
D03*
X282499Y767680D02*
G54D10*
D03*
X290500Y767680D02*
G54D10*
D03*
X298501Y767680D02*
G54D10*
D03*
X298501Y781820D02*
G54D10*
D03*
X290500Y781820D02*
G54D10*
D03*
X282499Y781820D02*
G54D10*
D03*
X232499Y767680D02*
G54D10*
D03*
X240500Y767680D02*
G54D10*
D03*
X248501Y767680D02*
G54D10*
D03*
X248501Y781820D02*
G54D10*
D03*
X240500Y781820D02*
G54D10*
D03*
X232499Y781820D02*
G54D10*
D03*
X182499Y767680D02*
G54D10*
D03*
X190500Y767680D02*
G54D10*
D03*
X198501Y767680D02*
G54D10*
D03*
X198501Y781820D02*
G54D10*
D03*
X190500Y781820D02*
G54D10*
D03*
X182499Y781820D02*
G54D10*
D03*
X132499Y767680D02*
G54D10*
D03*
X140500Y767680D02*
G54D10*
D03*
X148501Y767680D02*
G54D10*
D03*
X148501Y781820D02*
G54D10*
D03*
X140500Y781820D02*
G54D10*
D03*
X132499Y781820D02*
G54D10*
D03*
X148501Y931820D02*
G54D11*
D03*
X140500Y931820D02*
G54D11*
D03*
X132499Y931820D02*
G54D11*
D03*
X132499Y917680D02*
G54D11*
D03*
X140500Y917680D02*
G54D11*
D03*
X148501Y917680D02*
G54D11*
D03*
X198501Y931820D02*
G54D11*
D03*
X190500Y931820D02*
G54D11*
D03*
X182499Y931820D02*
G54D11*
D03*
X182499Y917680D02*
G54D11*
D03*
X190500Y917680D02*
G54D11*
D03*
X198501Y917680D02*
G54D11*
D03*
X248501Y931820D02*
G54D11*
D03*
X240500Y931820D02*
G54D11*
D03*
X232499Y931820D02*
G54D11*
D03*
X232499Y917680D02*
G54D11*
D03*
X240500Y917680D02*
G54D11*
D03*
X248501Y917680D02*
G54D11*
D03*
X298501Y931820D02*
G54D11*
D03*
X290500Y931820D02*
G54D11*
D03*
X282499Y931820D02*
G54D11*
D03*
X282499Y917680D02*
G54D11*
D03*
X290500Y917680D02*
G54D11*
D03*
X298501Y917680D02*
G54D11*
D03*
X348501Y931820D02*
G54D11*
D03*
X340500Y931820D02*
G54D11*
D03*
X332499Y931820D02*
G54D11*
D03*
X332499Y917680D02*
G54D11*
D03*
X340500Y917680D02*
G54D11*
D03*
X348501Y917680D02*
G54D11*
D03*
X332499Y867680D02*
G54D11*
D03*
X340500Y867680D02*
G54D11*
D03*
X348501Y867680D02*
G54D11*
D03*
X348501Y881820D02*
G54D11*
D03*
X340500Y881820D02*
G54D11*
D03*
X332499Y881820D02*
G54D11*
D03*
X282499Y867680D02*
G54D11*
D03*
X290500Y867680D02*
G54D11*
D03*
X298501Y867680D02*
G54D11*
D03*
X298501Y881820D02*
G54D11*
D03*
X290500Y881820D02*
G54D11*
D03*
X282499Y881820D02*
G54D11*
D03*
X232499Y867680D02*
G54D11*
D03*
X240500Y867680D02*
G54D11*
D03*
X248501Y867680D02*
G54D11*
D03*
X248501Y881820D02*
G54D11*
D03*
X240500Y881820D02*
G54D11*
D03*
X232499Y881820D02*
G54D11*
D03*
X182499Y867680D02*
G54D11*
D03*
X190500Y867680D02*
G54D11*
D03*
X198501Y867680D02*
G54D11*
D03*
X198501Y881820D02*
G54D11*
D03*
X190500Y881820D02*
G54D11*
D03*
X182499Y881820D02*
G54D11*
D03*
X132499Y867680D02*
G54D11*
D03*
X140500Y867680D02*
G54D11*
D03*
X148501Y867680D02*
G54D11*
D03*
X148501Y881820D02*
G54D11*
D03*
X140500Y881820D02*
G54D11*
D03*
X132499Y881820D02*
G54D11*
D03*
X148501Y831820D02*
G54D11*
D03*
X140500Y831820D02*
G54D11*
D03*
X132499Y831820D02*
G54D11*
D03*
X132499Y817680D02*
G54D11*
D03*
X140500Y817680D02*
G54D11*
D03*
X148501Y817680D02*
G54D11*
D03*
X198501Y831820D02*
G54D11*
D03*
X190500Y831820D02*
G54D11*
D03*
X182499Y831820D02*
G54D11*
D03*
X182499Y817680D02*
G54D11*
D03*
X190500Y817680D02*
G54D11*
D03*
X198501Y817680D02*
G54D11*
D03*
X248501Y831820D02*
G54D11*
D03*
X240500Y831820D02*
G54D11*
D03*
X232499Y831820D02*
G54D11*
D03*
X232499Y817680D02*
G54D11*
D03*
X240500Y817680D02*
G54D11*
D03*
X248501Y817680D02*
G54D11*
D03*
X298501Y831820D02*
G54D11*
D03*
X290500Y831820D02*
G54D11*
D03*
X282499Y831820D02*
G54D11*
D03*
X282499Y817680D02*
G54D11*
D03*
X290500Y817680D02*
G54D11*
D03*
X298501Y817680D02*
G54D11*
D03*
X348501Y831820D02*
G54D11*
D03*
X340500Y831820D02*
G54D11*
D03*
X332499Y831820D02*
G54D11*
D03*
X332499Y817680D02*
G54D11*
D03*
X340500Y817680D02*
G54D11*
D03*
X348501Y817680D02*
G54D11*
D03*
X332499Y767680D02*
G54D11*
D03*
X340500Y767680D02*
G54D11*
D03*
X348501Y767680D02*
G54D11*
D03*
X348501Y781820D02*
G54D11*
D03*
X340500Y781820D02*
G54D11*
D03*
X332499Y781820D02*
G54D11*
D03*
X282499Y767680D02*
G54D11*
D03*
X290500Y767680D02*
G54D11*
D03*
X298501Y767680D02*
G54D11*
D03*
X298501Y781820D02*
G54D11*
D03*
X290500Y781820D02*
G54D11*
D03*
X282499Y781820D02*
G54D11*
D03*
X232499Y767680D02*
G54D11*
D03*
X240500Y767680D02*
G54D11*
D03*
X248501Y767680D02*
G54D11*
D03*
X248501Y781820D02*
G54D11*
D03*
X240500Y781820D02*
G54D11*
D03*
X232499Y781820D02*
G54D11*
D03*
X182499Y767680D02*
G54D11*
D03*
X190500Y767680D02*
G54D11*
D03*
X198501Y767680D02*
G54D11*
D03*
X198501Y781820D02*
G54D11*
D03*
X190500Y781820D02*
G54D11*
D03*
X182499Y781820D02*
G54D11*
D03*
X132499Y767680D02*
G54D11*
D03*
X140500Y767680D02*
G54D11*
D03*
X148501Y767680D02*
G54D11*
D03*
X148501Y781820D02*
G54D11*
D03*
X140500Y781820D02*
G54D11*
D03*
X132499Y781820D02*
G54D11*
D03*
X86000Y850600D02*
G54D12*
D03*
M02*
