G04 Bottom Solder Mask (GBS) *
%FSLAX46Y46*%
%MOMM*%
%LPD*%
%ADD10C,0.800000*%
G01*
G54D10*
X2500000Y795500D03*
X2500000Y4204500D03*
X7500000Y795500D03*
X7500000Y4204500D03*
X12500000Y795500D03*
X12500000Y4204500D03*
X17500000Y795500D03*
X17500000Y4204500D03*
X22500000Y795500D03*
X22500000Y4204500D03*
X27500000Y795500D03*
X27500000Y4204500D03*
X32500000Y795500D03*
X32500000Y4204500D03*
X37500000Y795500D03*
X37500000Y4204500D03*
X42500000Y795500D03*
X42500000Y4204500D03*
X47500000Y795500D03*
X47500000Y4204500D03*
X52500000Y795500D03*
X52500000Y4204500D03*
X57500000Y795500D03*
X57500000Y4204500D03*
X62500000Y795500D03*
X62500000Y4204500D03*
X67500000Y795500D03*
X67500000Y4204500D03*
X72500000Y795500D03*
X72500000Y4204500D03*
X77500000Y795500D03*
X77500000Y4204500D03*
X82500000Y795500D03*
X82500000Y4204500D03*
X87500000Y795500D03*
X87500000Y4204500D03*
X92500000Y795500D03*
X92500000Y4204500D03*
X97500000Y795500D03*
X97500000Y4204500D03*
X102500000Y795500D03*
X102500000Y4204500D03*
X107500000Y795500D03*
X107500000Y4204500D03*
X112500000Y795500D03*
X112500000Y4204500D03*
X117500000Y795500D03*
X117500000Y4204500D03*
X122500000Y795500D03*
X122500000Y4204500D03*
X127500000Y795500D03*
X127500000Y4204500D03*
X132500000Y795500D03*
X132500000Y4204500D03*
X137500000Y795500D03*
X137500000Y4204500D03*
X142500000Y795500D03*
X142500000Y4204500D03*
X147500000Y795500D03*
X147500000Y4204500D03*
X152500000Y795500D03*
X152500000Y4204500D03*
X157500000Y795500D03*
X157500000Y4204500D03*
M02*
