M48
METRIC,TZ
T1C0.300
T2C0.600
%
T1
G05
X+002975Y+001090
X+002025Y+003910
X+007975Y+001090
X+007025Y+003910
X+012975Y+001090
X+012025Y+003910
X+017975Y+001090
X+017025Y+003910
X+022975Y+001090
X+022025Y+003910
X+027975Y+001090
X+027025Y+003910
X+032975Y+001090
X+032025Y+003910
X+037975Y+001090
X+037025Y+003910
X+042975Y+001090
X+042025Y+003910
X+047975Y+001090
X+047025Y+003910
X+052975Y+001090
X+052025Y+003910
X+057975Y+001090
X+057025Y+003910
X+062975Y+001090
X+062025Y+003910
X+067975Y+001090
X+067025Y+003910
X+072975Y+001090
X+072025Y+003910
X+077975Y+001090
X+077025Y+003910
X+082975Y+001090
X+082025Y+003910
X+087975Y+001090
X+087025Y+003910
X+092975Y+001090
X+092025Y+003910
X+097975Y+001090
X+097025Y+003910
X+102975Y+001090
X+102025Y+003910
X+107975Y+001090
X+107025Y+003910
X+112975Y+001090
X+112025Y+003910
X+117975Y+001090
X+117025Y+003910
X+122975Y+001090
X+122025Y+003910
X+127975Y+001090
X+127025Y+003910
X+132975Y+001090
X+132025Y+003910
X+137975Y+001090
X+137025Y+003910
X+142975Y+001090
X+142025Y+003910
X+147975Y+001090
X+147025Y+003910
X+152975Y+001090
X+152025Y+003910
X+157975Y+001090
X+157025Y+003910
T2
X+000000Y+004000
X+000000Y+002500
X+000000Y+001000
X+160000Y+004000
X+160000Y+002500
X+160000Y+001000
M30
