G04 Top Solder Mask (GTS) *
%FSLAX46Y46*%
%MOMM*%
%LPD*%
%ADD10R,0.750012X0.950011*%
%ADD11R,0.950011X0.750012*%
%ADD12C,0.800000*%
G01*
G54D11*
X2975005Y3124992D03*
X2975005Y1875008D03*
X2024995Y3124992D03*
X2024995Y1875008D03*
X7975005Y3124992D03*
X7975005Y1875008D03*
X7024995Y3124992D03*
X7024995Y1875008D03*
X12975005Y3124992D03*
X12975005Y1875008D03*
X12024995Y3124992D03*
X12024995Y1875008D03*
X17975005Y3124992D03*
X17975005Y1875008D03*
X17024995Y3124992D03*
X17024995Y1875008D03*
X22975005Y3124992D03*
X22975005Y1875008D03*
X22024995Y3124992D03*
X22024995Y1875008D03*
X27975005Y3124992D03*
X27975005Y1875008D03*
X27024995Y3124992D03*
X27024995Y1875008D03*
X32975005Y3124992D03*
X32975005Y1875008D03*
X32024995Y3124992D03*
X32024995Y1875008D03*
X37975005Y3124992D03*
X37975005Y1875008D03*
X37024995Y3124992D03*
X37024995Y1875008D03*
X42975005Y3124992D03*
X42975005Y1875008D03*
X42024995Y3124992D03*
X42024995Y1875008D03*
X47975005Y3124992D03*
X47975005Y1875008D03*
X47024995Y3124992D03*
X47024995Y1875008D03*
X52975005Y3124992D03*
X52975005Y1875008D03*
X52024995Y3124992D03*
X52024995Y1875008D03*
X57975005Y3124992D03*
X57975005Y1875008D03*
X57024995Y3124992D03*
X57024995Y1875008D03*
X62975005Y3124992D03*
X62975005Y1875008D03*
X62024995Y3124992D03*
X62024995Y1875008D03*
X67975005Y3124992D03*
X67975005Y1875008D03*
X67024995Y3124992D03*
X67024995Y1875008D03*
X72975005Y3124992D03*
X72975005Y1875008D03*
X72024995Y3124992D03*
X72024995Y1875008D03*
X77975005Y3124992D03*
X77975005Y1875008D03*
X77024995Y3124992D03*
X77024995Y1875008D03*
X82975005Y3124992D03*
X82975005Y1875008D03*
X82024995Y3124992D03*
X82024995Y1875008D03*
X87975005Y3124992D03*
X87975005Y1875008D03*
X87024995Y3124992D03*
X87024995Y1875008D03*
X92975005Y3124992D03*
X92975005Y1875008D03*
X92024995Y3124992D03*
X92024995Y1875008D03*
X97975005Y3124992D03*
X97975005Y1875008D03*
X97024995Y3124992D03*
X97024995Y1875008D03*
X102975005Y3124992D03*
X102975005Y1875008D03*
X102024995Y3124992D03*
X102024995Y1875008D03*
X107975005Y3124992D03*
X107975005Y1875008D03*
X107024995Y3124992D03*
X107024995Y1875008D03*
X112975005Y3124992D03*
X112975005Y1875008D03*
X112024995Y3124992D03*
X112024995Y1875008D03*
X117975005Y3124992D03*
X117975005Y1875008D03*
X117024995Y3124992D03*
X117024995Y1875008D03*
X122975005Y3124992D03*
X122975005Y1875008D03*
X122024995Y3124992D03*
X122024995Y1875008D03*
X127975005Y3124992D03*
X127975005Y1875008D03*
X127024995Y3124992D03*
X127024995Y1875008D03*
X132975005Y3124992D03*
X132975005Y1875008D03*
X132024995Y3124992D03*
X132024995Y1875008D03*
X137975005Y3124992D03*
X137975005Y1875008D03*
X137024995Y3124992D03*
X137024995Y1875008D03*
X142975005Y3124992D03*
X142975005Y1875008D03*
X142024995Y3124992D03*
X142024995Y1875008D03*
X147975005Y3124992D03*
X147975005Y1875008D03*
X147024995Y3124992D03*
X147024995Y1875008D03*
X152975005Y3124992D03*
X152975005Y1875008D03*
X152024995Y3124992D03*
X152024995Y1875008D03*
X157975005Y3124992D03*
X157975005Y1875008D03*
X157024995Y3124992D03*
X157024995Y1875008D03*
G54D12*
X2500000Y795500D03*
X2500000Y4204500D03*
X7500000Y795500D03*
X7500000Y4204500D03*
X12500000Y795500D03*
X12500000Y4204500D03*
X17500000Y795500D03*
X17500000Y4204500D03*
X22500000Y795500D03*
X22500000Y4204500D03*
X27500000Y795500D03*
X27500000Y4204500D03*
X32500000Y795500D03*
X32500000Y4204500D03*
X37500000Y795500D03*
X37500000Y4204500D03*
X42500000Y795500D03*
X42500000Y4204500D03*
X47500000Y795500D03*
X47500000Y4204500D03*
X52500000Y795500D03*
X52500000Y4204500D03*
X57500000Y795500D03*
X57500000Y4204500D03*
X62500000Y795500D03*
X62500000Y4204500D03*
X67500000Y795500D03*
X67500000Y4204500D03*
X72500000Y795500D03*
X72500000Y4204500D03*
X77500000Y795500D03*
X77500000Y4204500D03*
X82500000Y795500D03*
X82500000Y4204500D03*
X87500000Y795500D03*
X87500000Y4204500D03*
X92500000Y795500D03*
X92500000Y4204500D03*
X97500000Y795500D03*
X97500000Y4204500D03*
X102500000Y795500D03*
X102500000Y4204500D03*
X107500000Y795500D03*
X107500000Y4204500D03*
X112500000Y795500D03*
X112500000Y4204500D03*
X117500000Y795500D03*
X117500000Y4204500D03*
X122500000Y795500D03*
X122500000Y4204500D03*
X127500000Y795500D03*
X127500000Y4204500D03*
X132500000Y795500D03*
X132500000Y4204500D03*
X137500000Y795500D03*
X137500000Y4204500D03*
X142500000Y795500D03*
X142500000Y4204500D03*
X147500000Y795500D03*
X147500000Y4204500D03*
X152500000Y795500D03*
X152500000Y4204500D03*
X157500000Y795500D03*
X157500000Y4204500D03*
M02*
