G04 Bottom Solder Mask (GBS) *
%FSLAX46Y46*%
%MOMM*%
%LPD*%
%ADD10C,0.600000*%
G01*
G54D10*
X2975005Y1090002D03*
X2024995Y3909998D03*
X7975005Y1090002D03*
X7024995Y3909998D03*
X12975005Y1090002D03*
X12024995Y3909998D03*
X17975005Y1090002D03*
X17024995Y3909998D03*
X22975005Y1090002D03*
X22024995Y3909998D03*
X27975005Y1090002D03*
X27024995Y3909998D03*
X32975005Y1090002D03*
X32024995Y3909998D03*
X37975005Y1090002D03*
X37024995Y3909998D03*
X42975005Y1090002D03*
X42024995Y3909998D03*
X47975005Y1090002D03*
X47024995Y3909998D03*
X52975005Y1090002D03*
X52024995Y3909998D03*
X57975005Y1090002D03*
X57024995Y3909998D03*
X62975005Y1090002D03*
X62024995Y3909998D03*
X67975005Y1090002D03*
X67024995Y3909998D03*
X72975005Y1090002D03*
X72024995Y3909998D03*
X77975005Y1090002D03*
X77024995Y3909998D03*
X82975005Y1090002D03*
X82024995Y3909998D03*
X87975005Y1090002D03*
X87024995Y3909998D03*
X92975005Y1090002D03*
X92024995Y3909998D03*
X97975005Y1090002D03*
X97024995Y3909998D03*
X102975005Y1090002D03*
X102024995Y3909998D03*
X107975005Y1090002D03*
X107024995Y3909998D03*
X112975005Y1090002D03*
X112024995Y3909998D03*
X117975005Y1090002D03*
X117024995Y3909998D03*
X122975005Y1090002D03*
X122024995Y3909998D03*
X127975005Y1090002D03*
X127024995Y3909998D03*
X132975005Y1090002D03*
X132024995Y3909998D03*
X137975005Y1090002D03*
X137024995Y3909998D03*
X142975005Y1090002D03*
X142024995Y3909998D03*
X147975005Y1090002D03*
X147024995Y3909998D03*
X152975005Y1090002D03*
X152024995Y3909998D03*
X157975005Y1090002D03*
X157024995Y3909998D03*
%ADD22C,1.200000*%G01*
G54D22*X0Y4000000D03*
X0Y2500000D03*
X0Y1000000D03*
%ADD22C,1.200000*%G01*
G54D22*X160000000Y4000000D03*
X160000000Y2500000D03*
X160000000Y1000000D03*
M02*
