M48
METRIC,TZ
T1C0.300
%
T1
G05
X+002500Y+000796
X+002500Y+004204
X+007500Y+000796
X+007500Y+004204
X+012500Y+000796
X+012500Y+004204
X+017500Y+000796
X+017500Y+004204
X+022500Y+000796
X+022500Y+004204
X+027500Y+000796
X+027500Y+004204
X+032500Y+000796
X+032500Y+004204
X+037500Y+000796
X+037500Y+004204
X+042500Y+000796
X+042500Y+004204
X+047500Y+000796
X+047500Y+004204
X+052500Y+000796
X+052500Y+004204
X+057500Y+000796
X+057500Y+004204
X+062500Y+000796
X+062500Y+004204
X+067500Y+000796
X+067500Y+004204
X+072500Y+000796
X+072500Y+004204
X+077500Y+000796
X+077500Y+004204
X+082500Y+000796
X+082500Y+004204
X+087500Y+000796
X+087500Y+004204
X+092500Y+000796
X+092500Y+004204
X+097500Y+000796
X+097500Y+004204
X+102500Y+000796
X+102500Y+004204
X+107500Y+000796
X+107500Y+004204
X+112500Y+000796
X+112500Y+004204
X+117500Y+000796
X+117500Y+004204
X+122500Y+000796
X+122500Y+004204
X+127500Y+000796
X+127500Y+004204
X+132500Y+000796
X+132500Y+004204
X+137500Y+000796
X+137500Y+004204
X+142500Y+000796
X+142500Y+004204
X+147500Y+000796
X+147500Y+004204
X+152500Y+000796
X+152500Y+004204
X+157500Y+000796
X+157500Y+004204
M30
